<svg width="82" height="91" viewBox="0 0 82 91" fill="none" xmlns="http://www.w3.org/2000/svg">
<g clip-path="url(#clip0_651_6254)">
<path d="M0.915039 24.5635C0.915039 13.2498 0.915039 7.59291 4.42976 4.0782C7.94448 0.563477 13.6013 0.563477 24.915 0.563477H28.915C40.2287 0.563477 45.8856 0.563477 49.4003 4.0782C52.915 7.59291 52.915 13.2498 52.915 24.5635V28.5635C52.915 39.8772 52.915 45.534 49.4003 49.0488C45.8856 52.5635 40.2287 52.5635 28.915 52.5635H24.915C13.6013 52.5635 7.94448 52.5635 4.42976 49.0488C0.915039 45.534 0.915039 39.8772 0.915039 28.5635V24.5635Z" fill="#3563E9"/>
<g filter="url(#filter0_d_651_6254)">
<path opacity="0.4" d="M34.7341 55.4365C35.8869 55.4365 36.8313 56.4879 36.8313 57.7868C36.8313 59.0701 35.8869 60.1215 34.7341 60.1215C33.5675 60.1215 32.623 59.0701 32.623 57.7868C32.623 56.4879 33.5675 55.4365 34.7341 55.4365ZM50.3587 55.4365C51.5115 55.4365 52.4559 56.4879 52.4559 57.7868C52.4559 59.0701 51.5115 60.1215 50.3587 60.1215C49.1921 60.1215 48.2477 59.0701 48.2477 57.7868C48.2477 56.4879 49.1921 55.4365 50.3587 55.4365Z" fill="white"/>
<path d="M28.4156 29.8303L31.728 30.3869C32.2002 30.4812 32.5475 30.9126 32.5891 31.4383L32.853 34.9018C32.8947 35.3982 33.2558 35.7693 33.7002 35.7693H52.4567C53.3039 35.7693 53.8594 36.094 54.415 36.8052C54.9705 37.5165 55.0677 38.537 54.9428 39.4632L53.6233 49.6063C53.3733 51.5561 51.8734 52.9925 50.1095 52.9925H34.9571C33.1099 52.9925 31.5822 51.4154 31.4294 49.3759L30.1517 32.5207L28.0545 32.1187C27.499 32.0104 27.1101 31.4074 27.2073 30.7889C27.3045 30.155 27.8462 29.7375 28.4156 29.8303ZM47.8874 41.4887H44.0402C43.4569 41.4887 42.9986 41.9989 42.9986 42.6484C42.9986 43.2823 43.4569 43.808 44.0402 43.808H47.8874C48.4707 43.808 48.929 43.2823 48.929 42.6484C48.929 41.9989 48.4707 41.4887 47.8874 41.4887Z" fill="white"/>
</g>
</g>
<defs>
<filter id="filter0_d_651_6254" x="25.1924" y="29.8174" width="31.7988" height="34.3037" filterUnits="userSpaceOnUse" color-interpolation-filters="sRGB">
<feFlood flood-opacity="0" result="BackgroundImageFix"/>
<feColorMatrix in="SourceAlpha" type="matrix" values="0 0 0 0 0 0 0 0 0 0 0 0 0 0 0 0 0 0 127 0" result="hardAlpha"/>
<feOffset dy="2"/>
<feGaussianBlur stdDeviation="1"/>
<feComposite in2="hardAlpha" operator="out"/>
<feColorMatrix type="matrix" values="0 0 0 0 0.188235 0 0 0 0 0.482353 0 0 0 0 0.964706 0 0 0 0.1 0"/>
<feBlend mode="normal" in2="BackgroundImageFix" result="effect1_dropShadow_651_6254"/>
<feBlend mode="normal" in="SourceGraphic" in2="effect1_dropShadow_651_6254" result="shape"/>
</filter>
<clipPath id="clip0_651_6254">
<rect width="80.3771" height="89.4837" fill="white" transform="translate(0.915039 0.563477)"/>
</clipPath>
</defs>
</svg>
