<svg width="82" height="90" viewBox="0 0 82 90" fill="none" xmlns="http://www.w3.org/2000/svg">
<g clip-path="url(#clip0_651_6265)">
<path d="M0.915039 24.2676C0.915039 12.9539 0.915039 7.29702 4.42976 3.7823C7.94448 0.267578 13.6013 0.267578 24.915 0.267578H28.915C40.2287 0.267578 45.8856 0.267578 49.4003 3.7823C52.915 7.29702 52.915 12.9539 52.915 24.2676V28.2676C52.915 39.5813 52.915 45.2381 49.4003 48.7529C45.8856 52.2676 40.2287 52.2676 28.915 52.2676H24.915C13.6013 52.2676 7.94448 52.2676 4.42976 48.7529C0.915039 45.2381 0.915039 39.5813 0.915039 28.2676V24.2676Z" fill="#3563E9"/>
<g filter="url(#filter0_d_651_6265)">
<path d="M58.6214 43.2891H51.408C48.7769 43.2891 47.2861 44.9487 47.2861 47.878V55.9086C47.2861 58.8302 48.77 60.4975 51.408 60.4975H58.6214C61.2525 60.4975 62.7433 58.8302 62.7433 55.9086V47.878C62.7433 44.9487 61.2525 43.2891 58.6214 43.2891Z" fill="white"/>
<path d="M58.8644 52.8072H55.884V56.0966C55.884 56.6262 55.495 57.0555 55.0151 57.0555C54.5352 57.0555 54.1462 56.6262 54.1462 56.0966V52.8072H51.1657C50.7181 52.756 50.3779 52.3397 50.3779 51.8431C50.3779 51.3464 50.7181 50.9301 51.1657 50.879H54.1368V47.5999C54.1832 47.1059 54.5604 46.7305 55.0104 46.7305C55.4604 46.7305 55.8376 47.1059 55.884 47.5999V50.879H58.8644C59.3121 50.9301 59.6522 51.3464 59.6522 51.8431C59.6522 52.3397 59.3121 52.756 58.8644 52.8072Z" fill="#B3C5F7"/>
<path fill-rule="evenodd" clip-rule="evenodd" d="M15.915 23.2676C15.915 20.4392 15.915 19.0249 16.7937 18.1463C17.6724 17.2676 19.0866 17.2676 21.915 17.2676H31.915C34.7435 17.2676 36.1577 17.2676 37.0364 18.1463C37.915 19.0249 37.915 20.4392 37.915 23.2676V26.2676C37.915 29.096 37.915 30.5102 37.0364 31.3889C36.1577 32.2676 34.7435 32.2676 31.915 32.2676H21.915C19.0866 32.2676 17.6724 32.2676 16.7937 31.3889C15.915 30.5102 15.915 29.096 15.915 26.2676V23.2676Z" fill="white" fill-opacity="0.4"/>
<path d="M15.915 21.2676H37.915V24.2676H15.915V21.2676Z" fill="white"/>
</g>
</g>
<defs>
<filter id="filter0_d_651_6265" x="13.915" y="17.2676" width="50.8281" height="47.2295" filterUnits="userSpaceOnUse" color-interpolation-filters="sRGB">
<feFlood flood-opacity="0" result="BackgroundImageFix"/>
<feColorMatrix in="SourceAlpha" type="matrix" values="0 0 0 0 0 0 0 0 0 0 0 0 0 0 0 0 0 0 127 0" result="hardAlpha"/>
<feOffset dy="2"/>
<feGaussianBlur stdDeviation="1"/>
<feComposite in2="hardAlpha" operator="out"/>
<feColorMatrix type="matrix" values="0 0 0 0 0.188235 0 0 0 0 0.482353 0 0 0 0 0.964706 0 0 0 0.1 0"/>
<feBlend mode="normal" in2="BackgroundImageFix" result="effect1_dropShadow_651_6265"/>
<feBlend mode="normal" in="SourceGraphic" in2="effect1_dropShadow_651_6265" result="shape"/>
</filter>
<clipPath id="clip0_651_6265">
<rect width="80.3771" height="89.4837" fill="white" transform="translate(0.915039 0.267578)"/>
</clipPath>
</defs>
</svg>
